<?xml version="1.0" encoding="UTF-8"?>
<svg version="1.1" xmlns="http://www.w3.org/2000/svg" width="500" height="500">
<path d="M0 0 C3.54991306 0.59900842 6.54811143 1.55211126 9.8125 3.0625 C10.99779297 3.60583984 10.99779297 3.60583984 12.20703125 4.16015625 C12.79871094 4.43730469 13.39039063 4.71445313 14 5 C12.57268007 7.92846676 11.13071088 10.51417063 9 13 C8.34 13 7.68 13 7 13 C6.87625 13.5775 6.7525 14.155 6.625 14.75 C5.98827964 17.0421933 5.08738327 18.88919718 4 21 C0.11588922 29.63293236 0.21077255 39.04818626 3 48 C3.98465088 50.44477956 5.03708827 52.82032639 6.1953125 55.1875 C7 57 7 57 7 59 C7.66 59 8.32 59 9 59 C9.680625 59.886875 10.36125 60.77375 11.0625 61.6875 C16.453633 68.39084425 25.98403572 72.28590993 34.40234375 73.28515625 C43.74882411 73.6247598 52.06885043 70.95868974 60.02734375 66.18359375 C62 65 62 65 64.12890625 64.09765625 C66.51107118 62.7001858 66.93117308 61.52225265 68 59 C68.95818917 57.23842659 69.93848415 55.48874515 70.9375 53.75 C71.44152344 52.85796875 71.94554687 51.9659375 72.46484375 51.046875 C72.97144531 50.37140625 73.47804688 49.6959375 74 49 C74.99 49 75.98 49 77 49 C77.99 50.98 78.98 52.96 80 55 C80.66 55 81.32 55 82 55 C83.38938077 53.03852126 84.7260411 51.03833424 86 49 C88.96559839 51.79115142 91.4210071 54.53113868 93.75 57.875 C99.31674185 65.40647426 106.01919136 69.6556122 115 72 C115.99 72.33 116.98 72.66 118 73 C128.33545336 74.098367 138.57254862 71.90309537 147 65.6875 C150.70541573 62.49691351 153.55450021 59.22567979 156 55 C156.391875 54.41476563 156.78375 53.82953125 157.1875 53.2265625 C161.91504802 44.92052328 161.50664047 32.72928754 159.12890625 23.6875 C158.19166388 21.38044187 157.12849438 19.21619981 156 17 C155.63062066 15.67619949 155.2857105 14.34434311 155 13 C154.34 13 153.68 13 153 13 C150 9.53846154 150 9.53846154 150 7 C149.34 7 148.68 7 148 7 C148 6.34 148 5.68 148 5 C149.74294678 4.13153169 151.49468663 3.28069373 153.25 2.4375 C154.22453125 1.96183594 155.1990625 1.48617187 156.203125 0.99609375 C159.13083576 -0.04659653 160.21763432 -0.29965765 163 1 C167 6.11111111 167 6.11111111 167 10 C167.66 10 168.32 10 169 10 C174.79970824 23.48572936 178.19520592 38.64416528 173 53 C169.53715058 61.59256196 164.88830924 68.74147903 158 75 C157.01 75.33 156.02 75.66 155 76 C155 76.66 155 77.32 155 78 C152.44113496 79.32002556 149.87832932 80.63113782 147.3125 81.9375 C146.59126953 82.31068359 145.87003906 82.68386719 145.12695312 83.06835938 C133.16269834 89.13243372 118.07688443 88.47801887 105.34765625 84.8515625 C103.12765476 84.04630406 101.08177977 83.11092656 99 82 C99 81.34 99 80.68 99 80 C95.69330664 82.73692466 94.13219468 86.39995179 92.3125 90.1875 C91.99216797 90.84169922 91.67183594 91.49589844 91.34179688 92.16992188 C90.55571708 93.77727907 89.77711317 95.38828858 89 97 C88.34 97 87.68 97 87 97 C86.87753906 97.57234375 86.75507813 98.1446875 86.62890625 98.734375 C85.97237132 101.09953191 85.06276488 103.07206797 83.9375 105.25 C83.57527344 105.95640625 83.21304688 106.6628125 82.83984375 107.390625 C82.42412109 108.18726563 82.42412109 108.18726563 82 109 C81.34 109 80.68 109 80 109 C79.15885829 107.56705502 78.32734313 106.12845595 77.5 104.6875 C76.80390625 103.48673828 76.80390625 103.48673828 76.09375 102.26171875 C75 100 75 100 75 97 C74.34 97 73.68 97 73 97 C71.82592979 94.73272667 70.66060261 92.46165376 69.5 90.1875 C69.16613281 89.54490234 68.83226562 88.90230469 68.48828125 88.24023438 C66.99760916 85.30452301 66 83.33873483 66 80 C65.0925 80.598125 64.185 81.19625 63.25 81.8125 C58.1642257 84.71571529 52.69542236 85.84440706 47 87 C46.25878906 87.15726562 45.51757812 87.31453125 44.75390625 87.4765625 C34.01562312 89.22229473 22.67324998 86.68868117 13 82 C13 81.34 13 80.68 13 80 C12.38125 79.855625 11.7625 79.71125 11.125 79.5625 C9 79 9 79 7 78 C7 77.34 7 76.68 7 76 C6.4225 75.75636719 5.845 75.51273437 5.25 75.26171875 C-3.42326245 70.39806637 -8.45258091 60.29201214 -11.38671875 51.2109375 C-14.88677454 38.59290198 -14.26964466 23.66141497 -7.92724609 12.03320312 C-5.46982761 7.89038257 -2.79096159 3.92404429 0 0 Z " fill="#DEDEDE" transform="translate(169,172)"/>
<path d="M0 0 C22.29256015 0.83958993 42.04771736 6.16608659 61 18 C61 18.66 61 19.32 61 20 C63.475 20.99 63.475 20.99 66 22 C66 22.66 66 23.32 66 24 C67.98 24.495 67.98 24.495 70 25 C70 25.66 70 26.32 70 27 C70.5775 27.2475 71.155 27.495 71.75 27.75 C74.32939979 29.18299988 76.06121592 30.78424676 78 33 C78 33.66 78 34.32 78 35 C78.66 35 79.32 35 80 35 C95.91273406 52.43137673 103.17257761 75.40575735 103.1875 98.625 C103.19974609 99.635625 103.21199219 100.64625 103.22460938 101.6875 C103.23478604 106.85724501 103.08634969 111.16758531 101 116 C84.79677369 113.27556372 69.71315795 108.330584 55 101 C55 100.34 55 99.68 55 99 C54.43410156 98.896875 53.86820313 98.79375 53.28515625 98.6875 C34.0664915 92.90547436 20.08765715 70.82427658 10.8125 54.5 C3.23649106 40.25468531 -0.24170654 24.14973324 -0.0625 8.0625 C-0.05798828 7.28326172 -0.05347656 6.50402344 -0.04882812 5.70117188 C-0.03716908 3.80074732 -0.01923877 1.90036294 0 0 Z M14 15 C13.67089593 20.96400794 14.80966634 25.87832642 16.5625 31.5625 C16.9646875 32.87988159 16.9646875 32.87988159 17.375 34.22387695 C20.79443819 45.01303173 25.57913402 56.31551907 33 65 C33.66 65 34.32 65 35 65 C35.25136719 65.57363281 35.50273437 66.14726562 35.76171875 66.73828125 C44.56984896 82.82631719 67.94471804 93.06230977 84.64453125 98.40625 C87.07997543 99.12221351 87.07997543 99.12221351 90 99 C90.18572886 92.98100906 89.57844605 87.56706316 88.3125 81.6875 C88.13605957 80.85589355 87.95961914 80.02428711 87.77783203 79.16748047 C86.31529574 72.65392986 84.0591807 66.93106463 81 61 C80.31653318 59.34015202 79.64518038 57.67510134 79 56 C78.34 56 77.68 56 77 56 C76.88527344 55.41734375 76.77054688 54.8346875 76.65234375 54.234375 C75.95175938 51.83476865 75.01807405 50.27139067 73.5625 48.25 C73.13066406 47.63640625 72.69882813 47.0228125 72.25390625 46.390625 C71.84011719 45.93171875 71.42632812 45.4728125 71 45 C70.34 45 69.68 45 69 45 C69 44.34 69 43.68 69 43 C68.34 43 67.68 43 67 43 C66.34 41.68 65.68 40.36 65 39 C64.34 39 63.68 39 63 39 C63 38.34 63 37.68 63 37 C60.84609994 35.28524461 58.69429308 33.69355122 56.4375 32.125 C55.82841797 31.69058594 55.21933594 31.25617188 54.59179688 30.80859375 C48.23273979 26.32697256 41.75487964 22.70215928 34.5 19.875 C33.87480469 19.62363281 33.24960938 19.37226563 32.60546875 19.11328125 C26.39379054 16.65690333 20.73107706 14.67165478 14 15 Z " fill="#DADADA" transform="translate(156,254)"/>
<path d="M0 0 C0.99 0 1.98 0 3 0 C4.47265625 1.72265625 4.47265625 1.72265625 6.0625 4.0625 C10.98878327 10.69363289 17.26081379 15.14944565 25 18 C25 18.66 25 19.32 25 20 C26.19109375 20.16628906 26.19109375 20.16628906 27.40625 20.3359375 C40.74146764 22.8000538 53.16957143 27.46213158 65 34 C65.8146875 34.39703125 66.629375 34.7940625 67.46875 35.203125 C74.21327117 38.57538558 79.83568383 43.54609601 85 49 C85 49.66 85 50.32 85 51 C85.66 51 86.32 51 87 51 C88.65623137 53.26831687 90.08752543 55.6417912 91.5625 58.03125 C92.036875 58.6809375 92.51125 59.330625 93 60 C93.66 60 94.32 60 95 60 C96.08169084 58.56473708 97.08958839 57.07361804 98.0625 55.5625 C110.53551888 37.30489265 129.12226751 29.81710772 149.375 23 C150.27250977 22.69715088 151.17001953 22.39430176 152.09472656 22.08227539 C156.0111918 20.80586717 158.81999264 20 163 20 C163 19.34 163 18.68 163 18 C163.61746094 17.731875 164.23492187 17.46375 164.87109375 17.1875 C172.23176414 13.78164947 179.45164304 9.47392344 183.56640625 2.25 C184.27603516 1.13625 184.27603516 1.13625 185 0 C185.99 0 186.98 0 188 0 C189.25603365 9.08078386 189.41884428 17.19826937 184.38671875 25.2421875 C179.46928796 31.47555047 173.32564595 36.04807612 166 39 C165.27167969 39.30164063 164.54335938 39.60328125 163.79296875 39.9140625 C157.48213597 42.35888906 151.01422843 44.13382309 144.5 45.9375 C137.75459338 47.80780654 131.40337573 49.84791027 125.109375 52.96484375 C122.48639445 54.25204717 119.79773494 55.16824096 117 56 C117 56.66 117 57.32 117 58 C111.52380952 63 111.52380952 63 109 63 C108.72671875 63.57621094 108.4534375 64.15242188 108.171875 64.74609375 C107.00493366 66.99051093 105.69331977 68.98675786 104.25 71.0625 C100.78948645 76.17655944 97.8770337 81.54179777 95 87 C92 86 92 86 90.45703125 83.19140625 C89.91433594 81.99386719 89.37164062 80.79632813 88.8125 79.5625 C84.58575361 70.65341611 79.58166999 63.14900199 71 58 C71 57.34 71 56.68 71 56 C70.236875 55.773125 69.47375 55.54625 68.6875 55.3125 C65.67344362 54.23970027 62.96485276 53.04118554 60.09375 51.65625 C53.83443198 48.7892722 47.44005211 46.99437106 40.8125 45.1875 C9.62668049 36.28181933 9.62668049 36.28181933 1.625 22.125 C-1.64545308 14.84017103 -1.10453574 7.73175016 0 0 Z " fill="#DEDEDE" transform="translate(156,131)"/>
<path d="M0 0 C0.49726516 21.52053116 -3.55328522 40.09690691 -14 59 C-14.54527344 59.99 -15.09054687 60.98 -15.65234375 62 C-22.89380431 74.18123439 -34.23177858 86.15451905 -46 94 C-46.99 94 -47.98 94 -49 94 C-49 94.66 -49 95.32 -49 96 C-57.56760167 102.46361099 -68.48044668 107.01517862 -79 109 C-80.72584734 107.27415266 -80.2533507 105.03790633 -80.3125 102.6875 C-80.22363204 97.39643862 -80.22363204 97.39643862 -78.625 94.5625 C-75.50899779 92.70773678 -72.32079796 91.53351793 -68.9296875 90.265625 C-62.27812689 87.39215082 -55.84625761 83.31887466 -50.23828125 78.75 C-48 77 -48 77 -46 77 C-46 76.34 -46 75.68 -46 75 C-44.28515625 73.34375 -44.28515625 73.34375 -42.0625 71.5 C-39.07954821 69.11073001 -39.07954821 69.11073001 -37 66 C-36.34 66 -35.68 66 -35 66 C-35 65.34 -35 64.68 -35 64 C-34.34 64 -33.68 64 -33 64 C-32.62875 62.9790625 -32.62875 62.9790625 -32.25 61.9375 C-30.75802092 58.43134917 -28.93164489 55.28379632 -27 52 C-26.34 52 -25.68 52 -25 52 C-24.88140625 51.278125 -24.7628125 50.55625 -24.640625 49.8125 C-23.98702804 46.94304994 -23.00027736 44.65881767 -21.75 42 C-17.89425477 33.05197316 -16.07309505 23.48690954 -14 14 C-29.71995108 17.29894045 -47.50930647 22.44199659 -59.203125 34.21875 C-61 36 -61 36 -63 36 C-63 36.66 -63 37.32 -63 38 C-63.66 38 -64.32 38 -65 38 C-65 38.66 -65 39.32 -65 40 C-65.66 40 -66.32 40 -67 40 C-67 40.66 -67 41.32 -67 42 C-67.66 42 -68.32 42 -69 42 C-69 42.66 -69 43.32 -69 44 C-69.66 44 -70.32 44 -71 44 C-71.20625 44.66 -71.4125 45.32 -71.625 46 C-73.18059498 49.39402541 -75.19050682 51.99254066 -77.46875 54.9296875 C-79.60462669 57.81747996 -81.29055763 60.8441064 -83 64 C-86 63 -86 63 -87.45703125 60.453125 C-87.90433594 59.39609375 -88.35164062 58.3390625 -88.8125 57.25 C-89.27269531 56.20328125 -89.73289063 55.1565625 -90.20703125 54.078125 C-91.15331247 50.40487572 -90.81556728 49.27011397 -89 46 C-87.88390086 44.19686814 -86.71522249 42.42537114 -85.5 40.6875 C-84.8915625 39.80449219 -84.283125 38.92148437 -83.65625 38.01171875 C-83.1096875 37.34785156 -82.563125 36.68398438 -82 36 C-81.34 36 -80.68 36 -80 36 C-79.74992187 35.42378906 -79.49984375 34.84757812 -79.2421875 34.25390625 C-77.83134724 31.6939854 -76.21090765 29.98011523 -74.125 27.9375 C-73.44695312 27.26589844 -72.76890625 26.59429687 -72.0703125 25.90234375 C-66.73511294 21 -66.73511294 21 -64 21 C-64 20.34 -64 19.68 -64 19 C-63.01 19 -62.02 19 -61 19 C-61 18.34 -61 17.68 -61 17 C-47.01331093 6.30050513 -18.09441812 -5.26114193 0 0 Z " fill="#DDDDDD" transform="translate(344,255)"/>
<path d="M0 0 C0.74217773 0.28359375 1.48435547 0.5671875 2.24902344 0.859375 C9.05975588 3.52635138 15.41200909 6.14503451 21 11 C20.505 12.485 20.505 12.485 20 14 C14.54269204 16.71288141 8.75676074 18.6017129 2.70703125 17.28125 C-0.57507195 15.94394584 -3.78154385 14.48338796 -7 13 C-27.10950347 5.30107174 -49.20282215 7.55720174 -69 15 C-69.68545898 15.31348389 -70.37091797 15.62696777 -71.07714844 15.94995117 C-75.64113667 17.98067078 -78.3114558 18.19340799 -83.03515625 16.48632812 C-83.68355469 16.22271484 -84.33195313 15.95910156 -85 15.6875 C-85.67933594 15.43548828 -86.35867187 15.18347656 -87.05859375 14.92382812 C-88.71457403 14.30575098 -90.3587087 13.6560891 -92 13 C-91 10 -91 10 -87.68359375 8.0625 C-86.27329186 7.36467357 -84.8576358 6.67758946 -83.4375 6 C-82.74591797 5.65710938 -82.05433594 5.31421875 -81.34179688 4.9609375 C-76.65737785 2.67329951 -71.911937 0.73963106 -67 -1 C-65.9584375 -1.38542969 -64.916875 -1.77085937 -63.84375 -2.16796875 C-44.16502021 -8.1681422 -19.16759542 -7.39770427 0 0 Z " fill="#D6D6D6" transform="translate(285,136)"/>
<path d="M0 0 C9.82093031 -0.54560724 17.4428987 1.71672599 25.01953125 8.11328125 C30.53106255 13.36391166 32.59807775 17.36347728 33 25 C25.74998247 29.00988624 18.88818181 30.62432602 10.734375 28.375 C5.30647688 26.05467714 1.87318165 22.09020416 -1 17 C-1.94046922 14.14459946 -2.16183172 11.49805536 -2.1875 8.5 C-2.20167969 7.7471875 -2.21585938 6.994375 -2.23046875 6.21875 C-1.97417278 3.75135827 -1.22845153 2.13643744 0 0 Z " fill="#D8D8D8" transform="translate(196,192)"/>
<path d="M0 0 C1.72344698 6.10912912 2.05533589 12.45135056 -0.625 18.3125 C-3.74279617 23.76588906 -8.04073484 26.99007033 -14 29 C-20.43556002 29.82729172 -25.76774055 29.23373343 -31.5390625 26.265625 C-33 25 -33 25 -33.86328125 23.1875 C-34.05361228 20.14220345 -33.00017942 18.41496672 -31.5625 15.75 C-31.08941406 14.85796875 -30.61632812 13.9659375 -30.12890625 13.046875 C-29.75636719 12.37140625 -29.38382812 11.6959375 -29 11 C-28.34 11 -27.68 11 -27 11 C-26.75636719 10.39414063 -26.51273437 9.78828125 -26.26171875 9.1640625 C-23.51034001 4.44497946 -17.41877137 2.53203927 -12.5 0.6875 C-8.27194877 -0.14301006 -4.29119283 -0.17515073 0 0 Z " fill="#D8D8D8" transform="translate(305,192)"/>
<path d="M0 0 C0.99 0 1.98 0 3 0 C3.73030908 6.21324498 4.23180249 11.84098757 3 18 C2.67 18 2.34 18 2 18 C1.67 13.71 1.34 9.42 1 5 C-0.485 6.44375 -1.97 7.8875 -3.5 9.375 C-4.3353125 10.18710938 -5.170625 10.99921875 -6.03125 11.8359375 C-8.22431286 13.7589659 -8.22431286 13.7589659 -8 16 C-8.66 16 -9.32 16 -10 16 C-10 15.34 -10 14.68 -10 14 C-10.66 13.67 -11.32 13.34 -12 13 C-11.38511719 12.48050781 -10.77023437 11.96101562 -10.13671875 11.42578125 C-9.32847656 10.72839844 -8.52023437 10.03101563 -7.6875 9.3125 C-6.48673828 8.28576172 -6.48673828 8.28576172 -5.26171875 7.23828125 C-2.88674564 5.08352226 -2.88674564 5.08352226 -1.39453125 2.23046875 C-0.93433594 1.49441406 -0.47414063 0.75835937 0 0 Z " fill="#777777" transform="translate(341,131)"/>
<path d="M0 0 C0.66 0.33 1.32 0.66 2 1 C0.86913662 4.39259014 -0.20932463 5.33037102 -2.875 7.625 C-3.57367188 8.23601562 -4.27234375 8.84703125 -4.9921875 9.4765625 C-7 11 -7 11 -10 12 C-8.52278578 8.54798361 -6.56205999 6.35038064 -3.875 3.75 C-3.15054687 3.04359375 -2.42609375 2.3371875 -1.6796875 1.609375 C-1.12539063 1.07828125 -0.57109375 0.5471875 0 0 Z " fill="#888888" transform="translate(274,279)"/>
<path d="M0 0 C0.66 0.33 1.32 0.66 2 1 C1.34 2.32 0.68 3.64 0 5 C-0.66 5 -1.32 5 -2 5 C-2.28875 5.598125 -2.5775 6.19625 -2.875 6.8125 C-4 9 -4 9 -6 12 C-6.38499891 13.65549531 -6.72793135 15.3222433 -7 17 C-7.66 15.68 -8.32 14.36 -9 13 C-6.03 8.71 -3.06 4.42 0 0 Z " fill="#424242" transform="translate(262,291)"/>
<path d="M0 0 C0.33 0 0.66 0 1 0 C1 3.96 1 7.92 1 12 C1.99 12.33 2.98 12.66 4 13 C2.0625 13.5625 2.0625 13.5625 0 14 C-1 13 -1 13 -1.1328125 10.56640625 C-1.13023437 9.57511719 -1.12765625 8.58382813 -1.125 7.5625 C-1.12757813 6.57378906 -1.13015625 5.58507812 -1.1328125 4.56640625 C-1 2 -1 2 0 0 Z " fill="#616161" transform="translate(265,350)"/>
<path d="M0 0 C2 1 2 1 3 3 C0.36 4.98 -2.28 6.96 -5 9 C-5.66 8.67 -6.32 8.34 -7 8 C-5.38405168 5.95880212 -3.7143618 3.95927063 -2 2 C-1.34 2 -0.68 2 0 2 C0 1.34 0 0.68 0 0 Z " fill="#9C9C9C" transform="translate(309,319)"/>
<path d="M0 0 C-0.33 0.66 -0.66 1.32 -1 2 C-1.66 2 -2.32 2 -3 2 C-2.67 3.65 -2.34 5.3 -2 7 C-2.99 6.34 -3.98 5.68 -5 5 C-5 4.34 -5 3.68 -5 3 C-5.66 3 -6.32 3 -7 3 C-7 2.34 -7 1.68 -7 1 C-3.375 -1.125 -3.375 -1.125 0 0 Z " fill="#595959" transform="translate(324,176)"/>
<path d="M0 0 C3.25696479 0.41755959 4.63443291 0.63443291 7 3 C6.01 3.33 5.02 3.66 4 4 C4 3.34 4 2.68 4 2 C1.69 3.32 -0.62 4.64 -3 6 C-1.125 1.125 -1.125 1.125 0 0 Z " fill="#686868" transform="translate(169,172)"/>
<path d="M0 0 C1 3 1 3 1 7 C-0.375 8.75 -0.375 8.75 -2 10 C-2.66 10 -3.32 10 -4 10 C-4 9.01 -4 8.02 -4 7 C-3.34 7 -2.68 7 -2 7 C-1.855625 6.21625 -1.71125 5.4325 -1.5625 4.625 C-1 2 -1 2 0 0 Z " fill="#727272" transform="translate(321,300)"/>
<path d="M0 0 C0.33 0.99 0.66 1.98 1 3 C-0.4375 5.6875 -0.4375 5.6875 -2 8 C-2.99 7.67 -3.98 7.34 -5 7 C-3.88820837 3.66462511 -2.52588702 2.36292656 0 0 Z " fill="#6D6D6D" transform="translate(253,210)"/>
<path d="M0 0 C0.99 0.66 1.98 1.32 3 2 C3 2.66 3 3.32 3 4 C1.02 4.66 -0.96 5.32 -3 6 C-1.125 1.125 -1.125 1.125 0 0 Z " fill="#8E8E8E" transform="translate(255,221)"/>
<path d="M0 0 C0.66 0.33 1.32 0.66 2 1 C-0.35380297 4.92300495 -2.64464931 5.83857315 -7 7 C-6.34 6.01 -5.68 5.02 -5 4 C-4.34 4 -3.68 4 -3 4 C-3 3.34 -3 2.68 -3 2 C-2.01 2 -1.02 2 0 2 C0 1.34 0 0.68 0 0 Z " fill="#646464" transform="translate(283,272)"/>
<path d="M0 0 C0.33 0.66 0.66 1.32 1 2 C0.67 2.99 0.34 3.98 0 5 C0.66 5.33 1.32 5.66 2 6 C0.33333333 7.66666667 -1.33333333 9.33333333 -3 11 C-2.44894091 7.0507432 -1.61064629 3.65079826 0 0 Z " fill="#6E6E6E" transform="translate(161,185)"/>
</svg>
